<svg xmlns="http://www.w3.org/2000/svg" xmlns:xlink="http://www.w3.org/1999/xlink" viewBox="0 0 1086.65 262.33"><defs><style>.cls-1{fill:#0d0f19;}.cls-2{fill:url(#linear-gradient);}</style><linearGradient id="linear-gradient" x1="5.9" y1="64.35" x2="258.98" y2="210.46" gradientUnits="userSpaceOnUse"><stop offset="0" stop-color="#2fe077"/><stop offset="0.5" stop-color="#61d2c9"/><stop offset="1" stop-color="#6a70db"/></linearGradient></defs><g id="Layer_2" data-name="Layer 2"><g id="Layer_1-2" data-name="Layer 1"><path class="cls-1" d="M624.33,195.93c0,37.91-29,66.4-66.4,66.4s-66.15-28.49-66.15-66.4,28.76-66.66,66.15-66.66S624.33,158,624.33,195.93Zm-103.79,0c0,21.7,16.21,38.43,37.39,38.43s37.64-16.73,37.64-38.43c0-22-16.47-38.69-37.64-38.69S520.54,174,520.54,195.93Z"/><rect class="cls-1" x="637.36" y="76.72" width="29.02" height="183"/><path class="cls-1" d="M722,92.58a18.92,18.92,0,0,1-18.82,18.83,18.7,18.7,0,0,1,0-37.39C713.4,74,722,82.65,722,92.58Zm-4.44,39.3V259.72h-29V131.88Z"/><path class="cls-1" d="M865,195.93c0,37.91-29,66.4-66.4,66.4s-66.14-28.49-66.14-66.4,28.76-66.66,66.14-66.66S865,158,865,195.93Zm-103.78,0c0,21.7,16.21,38.43,37.38,38.43s37.65-16.73,37.65-38.43c0-22-16.47-38.69-37.65-38.69S761.2,174,761.2,195.93Z"/><path class="cls-1" d="M950.67,159.59V131.88H917.21V97.64h-29v34.24H863.62v27.71h24.57v81.59a18.54,18.54,0,0,0,18.54,18.54h39.33v-29H917.21V159.59Z"/><path class="cls-1" d="M1086.65,186.78v72.94h-29.28V190.44c0-20.13-12.29-33.2-30.85-33.2-19.08,0-31.63,13.07-31.63,33.2v69.28h-29v-183h29V152c8.1-14.38,21.7-22.74,38.69-22.74C1066.26,129.27,1086.65,151.23,1086.65,186.78Z"/><path class="cls-1" d="M448.86,157.24H406.58v29.54h40.31c-4.92,26.71-26.57,45.45-55,45.75-35.28.37-63.26-28.9-63.43-64.19-.18-36.53,26-64.43,60.65-64.43,23,0,41.83,11.5,49.93,29l27.19-13.33c-9.68-26.93-41.05-45.49-77.12-45.49-52.29,0-92.28,40.52-92.28,93.85,0,53.59,39.73,94.37,92.28,94.37,23.37,0,44.16-7.81,59.74-21.3v18.69H478V175.78a18.54,18.54,0,0,0-18.54-18.54Z"/><path class="cls-2" d="M233.85,109V78.92a16.23,16.23,0,0,0-7.63-13.77L125.53,2.22c-4.73-3-12.48-3-17.21,0L7.63,65.15A16.23,16.23,0,0,0,0,78.92v98.92a16.22,16.22,0,0,0,7.63,13.77L111,256.22a24.36,24.36,0,0,0,12.91,3.7H225.73a8.11,8.11,0,0,0,8.12-8.12V140.56a8.11,8.11,0,0,0-8.12-8.12H153.29a4.6,4.6,0,0,0-4.37,3.11,33.78,33.78,0,0,1-34.83,22.83c-15.6-1.27-29.78-15.64-30.85-31.25A33.77,33.77,0,0,1,148.94,114a4.61,4.61,0,0,0,4.38,3.12h72.41A8.12,8.12,0,0,0,233.85,109Z"/></g></g></svg>