<?xml version="1.0" encoding="UTF-8" standalone="no"?>
<svg
   viewBox="0 0 1086.65 262.33"
   version="1.1"
   id="svg31"
   sodipodi:docname="white_logo.svg"
   inkscape:version="1.2.1 (9c6d41e410, 2022-07-14)"
   xmlns:inkscape="http://www.inkscape.org/namespaces/inkscape"
   xmlns:sodipodi="http://sodipodi.sourceforge.net/DTD/sodipodi-0.dtd"
   xmlns="http://www.w3.org/2000/svg"
   xmlns:svg="http://www.w3.org/2000/svg">
  <sodipodi:namedview
     id="namedview33"
     pagecolor="#505050"
     bordercolor="#ffffff"
     borderopacity="1"
     inkscape:showpageshadow="0"
     inkscape:pageopacity="0"
     inkscape:pagecheckerboard="1"
     inkscape:deskcolor="#505050"
     showgrid="false"
     inkscape:zoom="1.5747466"
     inkscape:cx="565.17029"
     inkscape:cy="83.823009"
     inkscape:window-width="2560"
     inkscape:window-height="1369"
     inkscape:window-x="-8"
     inkscape:window-y="-8"
     inkscape:window-maximized="1"
     inkscape:current-layer="Layer_2" />
  <defs
     id="defs11">
    <style
       id="style9">.cls-1{fill:#fff;}</style>
  </defs>
  <g
     id="Layer_2"
     data-name="Layer 2">
    <g
       id="g208"
       transform="translate(0,-31.024983)">
      <path
         class="cls-1"
         d="m 624.33,195.93 c 0,37.91 -29,66.4 -66.4,66.4 -37.4,0 -66.15,-28.49 -66.15,-66.4 0,-37.91 28.76,-66.66 66.15,-66.66 37.39,0 66.4,28.73 66.4,66.66 z m -103.79,0 c 0,21.7 16.21,38.43 37.39,38.43 21.18,0 37.64,-16.73 37.64,-38.43 0,-22 -16.47,-38.69 -37.64,-38.69 -21.17,0 -37.39,16.76 -37.39,38.69 z"
         id="path13" />
      <rect
         class="cls-1"
         x="637.35999"
         y="76.720001"
         width="29.02"
         height="183"
         id="rect15" />
      <path
         class="cls-1"
         d="m 722,92.58 a 18.92,18.92 0 0 1 -18.82,18.83 18.7,18.7 0 0 1 0,-37.39 C 713.4,74 722,82.65 722,92.58 Z m -4.44,39.3 v 127.84 h -29 V 131.88 Z"
         id="path17" />
      <path
         class="cls-1"
         d="m 865,195.93 c 0,37.91 -29,66.4 -66.4,66.4 -37.4,0 -66.14,-28.49 -66.14,-66.4 0,-37.91 28.76,-66.66 66.14,-66.66 37.38,0 66.4,28.73 66.4,66.66 z m -103.78,0 c 0,21.7 16.21,38.43 37.38,38.43 21.17,0 37.65,-16.73 37.65,-38.43 0,-22 -16.47,-38.69 -37.65,-38.69 -21.18,0 -37.4,16.76 -37.4,38.69 z"
         id="path19" />
      <path
         class="cls-1"
         d="M 950.67,159.59 V 131.88 H 917.21 V 97.64 h -29 v 34.24 h -24.59 v 27.71 h 24.57 v 81.59 a 18.54,18.54 0 0 0 18.54,18.54 h 39.33 v -29 h -28.85 v -71.13 z"
         id="path21" />
      <path
         class="cls-1"
         d="m 1086.65,186.78 v 72.94 h -29.28 v -69.28 c 0,-20.13 -12.29,-33.2 -30.85,-33.2 -19.08,0 -31.63,13.07 -31.63,33.2 v 69.28 h -29 v -183 h 29 V 152 c 8.1,-14.38 21.7,-22.74 38.69,-22.74 32.68,0.01 53.07,21.97 53.07,57.52 z"
         id="path23" />
      <path
         class="cls-1"
         d="m 448.86,157.24 h -42.28 v 29.54 h 40.31 c -4.92,26.71 -26.57,45.45 -55,45.75 -35.28,0.37 -63.26,-28.9 -63.43,-64.19 -0.18,-36.53 26,-64.43 60.65,-64.43 23,0 41.83,11.5 49.93,29 l 27.19,-13.33 c -9.68,-26.93 -41.05,-45.49 -77.12,-45.49 -52.29,0 -92.28,40.52 -92.28,93.85 0,53.59 39.73,94.37 92.28,94.37 23.37,0 44.16,-7.81 59.74,-21.3 V 259.7 H 478 v -83.92 a 18.54,18.54 0 0 0 -18.54,-18.54 z"
         id="path25" />
    </g>
    <path
       class="cls-1"
       d="M 233.85,110.205 V 80.124997 a 16.23,16.23 0 0 0 -7.63,-13.77 L 125.53,3.4249969 c -4.73,-2.99999999 -12.48,-2.99999999 -17.21,0 L 7.63,66.354997 A 16.23,16.23 0 0 0 0,80.124997 V 179.045 a 16.22,16.22 0 0 0 7.63,13.77 L 111,257.425 a 24.36,24.36 0 0 0 12.91,3.7 h 101.82 a 8.11,8.11 0 0 0 8.12,-8.12 v -111.24 a 8.11,8.11 0 0 0 -8.12,-8.12 h -72.44 a 4.6,4.6 0 0 0 -4.37,3.11 33.78,33.78 0 0 1 -34.83,22.83 c -15.6,-1.27 -29.78,-15.64 -30.85,-31.25 a 33.77,33.77 0 0 1 65.7,-13.13 4.61,4.61 0 0 0 4.38,3.12 h 72.41 a 8.12,8.12 0 0 0 8.12,-8.12 z"
       id="path27" />
  </g>
</svg>
