<?xml version="1.0" encoding="UTF-8"?> <!-- Generator: Adobe Illustrator 25.0.1, SVG Export Plug-In . SVG Version: 6.00 Build 0) --> <svg xmlns="http://www.w3.org/2000/svg" xmlns:xlink="http://www.w3.org/1999/xlink" version="1.1" id="Layer_1" x="0px" y="0px" viewBox="0 0 400 245" style="enable-background:new 0 0 400 245;" xml:space="preserve"> <style type="text/css"> .st0{fill:#7929D2;} .st1{fill:#9454DB;} .st2{fill:#AF7FE4;} .st3{fill:url(#SVGID_1_);} .st4{fill:url(#SVGID_2_);} .st5{fill:url(#SVGID_3_);} .st6{fill:url(#SVGID_4_);} .st7{fill:#2D3136;} </style> <g> <polygon class="st0" points="121.1,128.9 91.7,141.3 116.7,154 "></polygon> <polygon class="st1" points="57.6,145.4 26.2,133.6 33.5,158.3 "></polygon> <polygon class="st2" points="72.5,123.3 91.7,141.3 57.6,145.4 "></polygon> <polygon class="st2" points="30,106.3 26.2,133.6 2.5,110 "></polygon> <linearGradient id="SVGID_1_" gradientUnits="userSpaceOnUse" x1="154.4065" y1="845.6965" x2="243.441" y2="845.6965" gradientTransform="matrix(1 0 0 -1 0 939)"> <stop offset="0" style="stop-color:#7929D2"></stop> <stop offset="1" style="stop-color:#0070C5"></stop> </linearGradient> <polygon class="st3" points="121.1,128.9 198.5,57.7 233.3,103.8 "></polygon> <linearGradient id="SVGID_2_" gradientUnits="userSpaceOnUse" x1="160.466" y1="924.1301" x2="159.7214" y2="836.1218" gradientTransform="matrix(1 0 0 -1 0 939)"> <stop offset="0" style="stop-color:#00AEFF"></stop> <stop offset="1" style="stop-color:#9454DB"></stop> </linearGradient> <polygon class="st4" points="121.1,128.9 154.2,24.1 198.5,57.7 "></polygon> <linearGradient id="SVGID_3_" gradientUnits="userSpaceOnUse" x1="209.4731" y1="887.6385" x2="190.4644" y2="920.562" gradientTransform="matrix(1 0 0 -1 0 939)"> <stop offset="0" style="stop-color:#66A9DC"></stop> <stop offset="1" style="stop-color:#B1E4FA"></stop> </linearGradient> <polygon class="st5" points="154.2,24.1 233.3,24.1 198.5,57.7 "></polygon> <linearGradient id="SVGID_4_" gradientUnits="userSpaceOnUse" x1="213.7" y1="913.4348" x2="224.4991" y2="838.7374" gradientTransform="matrix(1 0 0 -1 0 939)"> <stop offset="0" style="stop-color:#00AEFF"></stop> <stop offset="1" style="stop-color:#9454DB"></stop> </linearGradient> <polygon class="st6" points="233.3,103.8 233.3,24.1 198.5,57.7 "></polygon> <path class="st7" d="M385,159.9v7.3h-1.8v-7.3h-2.8v-1.7h7.3v1.7H385z"></path> <path class="st7" d="M395.7,167.2v-6l-2.1,3.7h-1.1l-2.1-3.7v6h-1.8v-9h2.1l2.3,4.3l2.4-4.3h2.1v9H395.7z"></path> <path class="st7" d="M153.8,207v-8.4l22.3-31.2h-21.3v-9.1H188v8l-22.6,31.6h23.2v9.1L153.8,207z"></path> <path class="st7" d="M202.4,190.9c0.2,3.3,1,5.6,2.4,7.1c1.4,1.4,3.7,2.1,6.8,2.1c1.6,0,3.2-0.2,4.7-0.7c1.4-0.5,2.6-1.4,3.5-2.6 l6.8,4.8c-1.4,2.1-3.4,3.8-5.8,4.8c-2.4,1.1-5.6,1.6-9.7,1.6c-6.1,0-10.6-1.6-13.6-4.8c-3-3.2-4.5-8-4.5-14.4 c0-13.2,5.9-19.8,17.7-19.8c5.3,0,9.3,1.5,12,4.4c2.8,3,4.1,7.3,4.1,13v4.5L202.4,190.9z M217.9,184.6c0-5.6-2.5-8.4-7.4-8.4 c-1.4-0.1-2.7,0.2-4,0.8c-1,0.6-1.9,1.4-2.5,2.5c-0.6,1.1-1.1,2.8-1.5,5.1H217.9z"></path> <path class="st7" d="M267.8,188.3c0,4-0.6,7.5-1.8,10.5c-1.2,3-2.9,5.3-5.1,6.9c-2.2,1.6-4.9,2.4-8,2.4c-4.1,0-7.6-1.3-10.5-3.8 v16.6h-9.1v-50.8h8.4v3.6c1.6-1.4,3.4-2.6,5.3-3.4c2-0.9,4.2-1.3,6.4-1.2c4.7,0,8.2,1.6,10.7,4.9 C266.6,177.2,267.8,182,267.8,188.3z M258.4,188.4c0-3.6-0.6-6.4-1.9-8.4c-1.2-2-3.1-3-5.6-3c-1.6,0-3.1,0.4-4.6,1 c-1.5,0.6-2.8,1.5-4,2.6v16.1c1.1,0.9,2.3,1.7,3.6,2.3c1.4,0.7,2.9,1,4.4,1c2.5,0,4.5-1.1,5.9-3.2 C257.7,194.8,258.4,191.9,258.4,188.4L258.4,188.4z"></path> <path class="st7" d="M298.1,207v-20.3c0-3.9-0.4-6.5-1.1-7.7c-0.7-1.3-2-1.9-3.9-1.9c-2.7,0-5.9,1.8-9.7,5.3V207h-9.1v-52.4h9.1 v20.3c1.8-1.8,3.9-3.3,6.2-4.4c2-0.9,4.2-1.5,6.4-1.5c4.1,0,7,1.2,8.7,3.5c1.7,2.3,2.5,5.6,2.5,9.9V207L298.1,207z"></path> <path class="st7" d="M311.5,212c1.7,0.6,3.5,1,5.3,1c1.3,0,2.6-0.4,3.6-1.2c1-0.8,2.1-2.5,3.2-5.1l0.9-2.2l-13.3-34.4h9.4l8.7,23.6 l8.9-23.6h9.2l-15.9,39.4c-1.3,3.2-2.5,5.5-3.8,7c-1.1,1.4-2.6,2.6-4.3,3.3c-1.6,0.7-3.7,1-6.1,1c-2.7,0-5.3-0.4-7.9-1.1L311.5,212 z"></path> <path class="st7" d="M374,178.9c-1.2-0.5-2.4-0.8-3.7-0.7c-1.7,0-3.3,0.4-4.8,1.2c-1.7,1-3.3,2.1-4.7,3.5v24h-9.1v-36.9h9.1v5.3 c1.5-1.6,3.1-3,5-4.2c1.8-1.1,3.9-1.7,6-1.7c1.9,0,3.2,0.2,4,0.7L374,178.9z"></path> </g> </svg> 